<svg height="512" viewBox="0 0 512 512" width="512" xmlns="http://www.w3.org/2000/svg"><g id="Dairy_Product" data-name="Dairy Product"><g id="Flat"><path d="m208 72h-160v-56a16 16 0 0 1 16-16h128a16 16 0 0 1 16 16z" fill="#e2dbd5"/><path d="m208.167 56h-64.167v456h112.333v-368z" fill="#d4ccc7"/><path d="m144 56h64.167v456h-64.167z" fill="#c6bab3"/><path d="m169.6 128-9.6 16v368h-144a16 16 0 0 1 -16-16v-352a32.956 32.956 0 0 1 28.259-16z" fill="#e2dbd5"/><rect fill="#ffead2" height="80" rx="8" width="112" x="304"/><path d="m408 0h-24a88.011 88.011 0 0 1 -51.3 80h75.3a8 8 0 0 0 8-8v-64a8 8 0 0 0 -8-8z" fill="#faddc3"/><path d="m304 24h112v16h-112z" fill="#f5d3b8"/><path d="m440 512h-160a8 8 0 0 1 -8-8v-304a88.428 88.428 0 0 1 34.54-69.9c16.347-12.506-18.54-24.816-18.54-43.267a22.859 22.859 0 0 1 22.833-22.833h98.334a22.859 22.859 0 0 1 22.833 22.833c0 10.149-11.067 19.4-11.067 19.4-8.859 7.418-15.391 17.806-7.473 23.863a88.428 88.428 0 0 1 34.54 69.904v304a8 8 0 0 1 -8 8z" fill="#f09b73"/><path d="m272 311.394v192.606a8 8 0 0 0 8 8h160a8 8 0 0 0 8-8v-304a87.086 87.086 0 0 0 -1.051-13.424 208.119 208.119 0 0 1 -174.949 124.818z" fill="#e58b6c"/><path d="m160 144h-160l48-88h160z" fill="#efebe8"/><path d="m280 512c54.5 0 124.472-11.3 157.577-43.217a7.884 7.884 0 0 0 1.889-8.536l-65.54-168.742a8.019 8.019 0 0 0 -9.552-4.806c-22.076 5.918-25.806-22.324-11.487-29.463a7.9 7.9 0 0 0 3.871-9.934l-13.292-34.221a8 8 0 0 0 -7.466-5.081h-56z" fill="#eed60f"/><path d="m280 512a145.412 145.412 0 0 1 -101.577-40.926 8 8 0 0 1 -1.889-8.611l9.784-25.41a8 8 0 0 1 6.984-5.111c11.908-.718 19.9-17.064 10.327-26.922a8 8 0 0 1 -1.726-8.447l25.85-67.138a8.072 8.072 0 0 1 11.771-3.868c19.987 12.755 33.973-25.583 11.316-29.31a8.085 8.085 0 0 1 -6.167-10.769l27.861-72.363a8 8 0 0 1 7.466-5.125 8 8 0 0 1 7.466 5.125l96 249.338a8 8 0 0 1 -1.889 8.611 145.412 145.412 0 0 1 -101.577 40.926z" fill="#f8e868"/><path d="m383.466 462.463-41.412-107.558a200.121 200.121 0 0 1 -163.56 116.236 146.517 146.517 0 0 0 203.083-.067 8 8 0 0 0 1.889-8.611z" fill="#f6e23d"/><circle cx="312" cy="432" fill="#f8e868" r="24"/><circle cx="288" cy="376" fill="#f6e23d" r="24"/><circle cx="248" cy="448" fill="#f8e868" r="24"/><g fill="#eed60f"><path d="m304 448a24 24 0 0 1 30.966-22.966 24 24 0 1 0 -29.932 29.932 23.932 23.932 0 0 1 -1.034-6.966z"/><path d="m280 392a24 24 0 0 1 30.966-22.966 24 24 0 1 0 -29.932 29.932 23.932 23.932 0 0 1 -1.034-6.966z"/><path d="m240 464a24 24 0 0 1 30.966-22.966 24 24 0 1 0 -29.932 29.932 23.932 23.932 0 0 1 -1.034-6.966z"/></g><circle cx="280" cy="280" fill="#fcf5be" r="16"/><circle cx="296" cy="312" fill="#fcf5be" r="8"/><path d="m336.033 328 16 176.724a8 8 0 0 0 7.967 7.276h112a8 8 0 0 0 7.967-7.276l16-176.724z" fill="#81c784"/><circle cx="356" cy="148" fill="#f2bba5" r="20"/><circle cx="388" cy="180" fill="#f2bba5" r="12"/><circle cx="64" cy="96" fill="#fff" r="16"/><circle cx="88" cy="120" fill="#fff" r="8"/><circle cx="376" cy="368" fill="#c8e6c9" r="16"/><circle cx="400" cy="392" fill="#c8e6c9" r="8"/><path d="m0 496a16 16 0 0 0 16 16h144v-80c-27.6 63.156-160 64-160 64z" fill="#d4ccc7"/><path d="m0 208h160v224h-160z" fill="#ea6049"/><path d="m0 372.288v59.712h160v-190.308a216.326 216.326 0 0 1 -160 130.596z" fill="#de513e"/><path d="m32 336c0-23.491 40-80 48-80s48 55.383 48 80c0 57.418-96 65.9-96 0z" fill="#fff"/><path d="m36.09 357.189c18.31 41.838 91.91 29.085 91.91-21.189 0-5.617-2.087-12.839-5.4-20.636-13.267 32.691-51.368 52.063-86.51 41.825z" fill="#efebe8"/><path d="m504 336h-176a8 8 0 0 1 0-16h176a8 8 0 0 1 0 16z" fill="#49ad4d"/><path d="m348 460.142 4.036 44.582a8 8 0 0 0 7.964 7.276h112a8 8 0 0 0 7.967-7.276l12.354-136.453a172 172 0 0 1 -144.321 91.871z" fill="#66bb6a"/></g></g></svg>