<svg id="Capa_1" enable-background="new 0 0 512 512" height="512" viewBox="0 0 512 512" width="512" xmlns="http://www.w3.org/2000/svg"><g><path d="m504.5 209.34v155.44c0 17.12-13.88 31-31 31h-62.19l-31.06 31.06-31.06-31.06h-124.31c-9.53 0-18.06-4.3-23.73-11.06-4.54-5.39-7.27-12.35-7.27-19.94v-155.44c0-17.12 13.87-31 31-31h248.62c17.12 0 31 13.88 31 31z" fill="#aee69c"/><path d="m431.31 178.34v155.38c0 28.12-22.88 51-51 51h-179.16c-4.54-5.39-7.27-12.35-7.27-19.94v-155.44c0-17.12 13.87-31 31-31z" fill="#89daa4"/><path d="m7.502 116.158v217.56c0 17.121 13.879 31 31 31h31.125l31.062 31.062 31.062-31.062h248.56c17.121 0 31-13.879 31-31v-217.56c0-17.121-13.879-31-31-31h-341.809c-17.121 0-31 13.879-31 31z" fill="#eaf6ff"/><path d="m37.5 116.16v217.56c0 17.12 13.88 31 31 31h-30c-17.12 0-31-13.88-31-31v-217.56c0-17.12 13.88-31 31-31h30c-17.12 0-31 13.88-31 31z" fill="#d8ecfe"/><path d="m205 273.718c-8.836 0-16-7.164-16-16 0-22.741 11.22-43.534 30.012-55.621 7.82-5.03 12.279-13.585 11.927-22.885-.512-13.457-11.454-24.399-24.911-24.91-7.142-.268-13.899 2.298-19.027 7.234-5.132 4.941-7.958 11.583-7.958 18.704 0 8.836-7.164 16-16 16s-16-7.164-16-16c0-15.899 6.309-30.728 17.765-41.757 11.451-11.025 26.51-16.774 42.435-16.158 30.076 1.142 54.531 25.596 55.673 55.673.774 20.417-9.415 39.964-26.593 51.013-9.595 6.171-15.323 16.902-15.323 28.707 0 8.837-7.163 16-16 16z" fill="#f25a74"/><path d="m205 301.374c-8.578 0-15.531 6.953-15.531 15.531 0 8.578 6.953 15.531 15.531 15.531s15.531-6.954 15.531-15.531c0-8.578-6.953-15.531-15.531-15.531z" fill="#f25a74"/><g><path d="m504.5 301.6c-4.143 0-7.5 3.357-7.5 7.5v55.681c0 12.958-10.542 23.5-23.5 23.5h-62.19c-1.989 0-3.896.79-5.304 2.196l-25.756 25.757-25.756-25.757c-1.407-1.406-3.314-2.196-5.304-2.196h-124.31c-10.347 0-19.146-6.724-22.276-16.061h75.886c4.143 0 7.5-3.357 7.5-7.5s-3.357-7.5-7.5-7.5h-146.74c-1.989 0-3.897.79-5.303 2.196l-25.757 25.758-25.757-25.758c-1.406-1.406-3.314-2.196-5.303-2.196h-31.13c-12.958 0-23.5-10.542-23.5-23.5v-217.56c0-12.958 10.542-23.5 23.5-23.5h46.33c4.142 0 7.5-3.357 7.5-7.5s-3.358-7.5-7.5-7.5h-46.33c-21.229 0-38.5 17.272-38.5 38.5v217.56c0 21.229 17.271 38.5 38.5 38.5h28.023l28.863 28.864c3.535 2.928 7.071 2.928 10.606 0l28.863-28.864h52.252c3.476 17.68 19.088 31.061 37.772 31.061h121.204l28.862 28.863c3.536 2.928 7.072 2.928 10.607 0l28.862-28.863h59.086c21.229 0 38.5-17.271 38.5-38.5v-55.681c0-4.143-3.357-7.5-7.5-7.5z"/><path d="m473.5 170.84h-54.69v-54.68c0-21.229-17.271-38.5-38.5-38.5h-262.79c-4.142 0-7.5 3.357-7.5 7.5s3.358 7.5 7.5 7.5h262.79c12.958 0 23.5 10.542 23.5 23.5v217.56c0 12.958-10.542 23.5-23.5 23.5h-69.14c-4.143 0-7.5 3.357-7.5 7.5s3.357 7.5 7.5 7.5h69.14c21.229 0 38.5-17.271 38.5-38.5v-147.88h54.69c12.958 0 23.5 10.542 23.5 23.5v67.07c0 4.143 3.357 7.5 7.5 7.5s7.5-3.357 7.5-7.5v-67.07c0-21.229-17.271-38.5-38.5-38.5z"/><path d="m240.38 235.318c19.398-12.477 30.905-34.55 30.03-57.605-1.29-33.972-28.912-61.593-62.877-62.882-36.668-1.424-67.99 28.717-67.99 65.409 0 12.958 10.542 23.5 23.5 23.5s23.5-10.542 23.5-23.5c1.16-11.599 7.56-17.747 19.201-18.444 9.563.363 17.337 8.139 17.701 17.7.251 6.621-2.923 12.712-8.489 16.293-20.949 13.475-33.455 36.625-33.455 61.929 0 12.958 10.542 23.5 23.5 23.5s23.5-10.542 23.5-23.5c-.001-9.241 4.44-17.614 11.879-22.4zm-26.88 22.4c0 4.687-3.813 8.5-8.5 8.5s-8.5-3.813-8.5-8.5c0-20.177 9.933-38.612 26.569-49.313 10.075-6.48 15.818-17.499 15.364-29.478-.66-17.353-14.769-31.461-32.124-32.12-17.327-.62-34.767 16.211-34.767 33.434 0 4.687-3.813 8.5-8.5 8.5s-8.5-3.813-8.5-8.5c3.162-31.678 21.811-50.421 52.415-50.421 26.2 0 47.469 22.281 48.463 48.463.674 17.779-8.198 34.8-23.155 44.421-11.749 7.557-18.765 20.646-18.765 35.014z"/><path d="m205 293.873c-12.7 0-23.031 10.332-23.031 23.031s10.331 23.032 23.031 23.032 23.031-10.332 23.031-23.031-10.331-23.032-23.031-23.032zm0 31.063c-4.428 0-8.031-3.603-8.031-8.031s3.603-8.031 8.031-8.031 8.031 3.603 8.031 8.031-3.603 8.031-8.031 8.031z"/></g></g></svg>