<?xml version="1.0" encoding="iso-8859-1"?>
<!-- Generator: Adobe Illustrator 19.0.0, SVG Export Plug-In . SVG Version: 6.00 Build 0)  -->
<svg version="1.1" id="Capa_1" xmlns="http://www.w3.org/2000/svg" xmlns:xlink="http://www.w3.org/1999/xlink" x="0px" y="0px"
	 viewBox="0 0 472 472" style="enable-background:new 0 0 472 472;" xml:space="preserve">
<path style="fill:#33BC00;" d="M100,216h-8c-8.837,0-16,7.163-16,16v8c0.026,22.08,17.92,39.974,40,40h8c8.837,0,16-7.163,16-16v-8
	C139.974,233.92,122.08,216.026,100,216z"/>
<path style="fill:#79D60D;" d="M148,216h-8c-8.837,0-16,7.163-16,16v8c0.026,22.08,17.92,39.974,40,40h8c8.837,0,16-7.163,16-16v-8
	C187.974,233.92,170.08,216.026,148,216z"/>
<path style="fill:#025902;" d="M84,264h-8c-8.837,0-16,7.163-16,16v8c0.026,22.08,17.92,39.974,40,40h8c8.837,0,16-7.163,16-16v-8
	C123.974,281.92,106.08,264.026,84,264z"/>
<path style="fill:#008100;" d="M132,264h-8c-8.837,0-16,7.163-16,16v8c0.026,22.08,17.92,39.974,40,40h8c8.837,0,16-7.163,16-16v-8
	C171.974,281.92,154.08,264.026,132,264z"/>
<path style="fill:#33BC00;" d="M180,264h-8c-8.837,0-16,7.163-16,16v8c0.026,22.08,17.92,39.974,40,40h8c8.837,0,16-7.163,16-16v-8
	C219.974,281.92,202.08,264.026,180,264z"/>
<g>
	<path style="fill:#008100;" d="M292.407,205.475l8.003-23.997l15.178,5.062l-8.003,23.997L292.407,205.475z"/>
	<path style="fill:#008100;" d="M324.411,205.439l8.003-23.997l15.178,5.062l-8.003,23.997L324.411,205.439z"/>
	<path style="fill:#008100;" d="M356.423,205.466l8.003-23.997l15.178,5.062l-8.003,23.997L356.423,205.466z"/>
</g>
<path style="fill:#FF8800;" d="M300,200c-13.255,0-24,10.745-24,24v40h48v-40C324,210.745,313.255,200,300,200z"/>
<path style="fill:#FF6536;" d="M332,200c-13.255,0-24,10.745-24,24v40h48v-40C356,210.745,345.255,200,332,200z"/>
<path style="fill:#FF421D;" d="M364,200c-13.255,0-24,10.745-24,24v40h48v-40C388,210.745,377.255,200,364,200z"/>
<path style="fill:#FFA900;" d="M260,256h144v64H260V256z"/>
<path style="fill:#763A02;" d="M444,328H28V136h16v176h384V136h16V328z"/>
<g>
	<path style="fill:#DE0418;" d="M212,0h48v112h-48V0z"/>
	<path style="fill:#DE0418;" d="M164,112V0h-35.552L116,112H164z"/>
</g>
<g>
	<path style="fill:#FBBF00;" d="M164,0h48v112h-48V0z"/>
	<path style="fill:#FBBF00;" d="M116,112L128.448,0h-35.56L68,112H116z"/>
	<path style="fill:#FBBF00;" d="M404,112L379.112,0h-35.56L356,112H404z"/>
</g>
<g>
	<path style="fill:#DE0418;" d="M92.888,0H68L20,96v16h48L92.888,0z"/>
	<path style="fill:#DE0418;" d="M356,112L343.552,0H308v112H356z"/>
</g>
<path style="fill:#FBBF00;" d="M260,0h48v112h-48V0z"/>
<path style="fill:#DE0418;" d="M404,0h-24.888L404,112h48V96L404,0z"/>
<path style="fill:#FF421D;" d="M20,112v24c0,13.255,10.745,24,24,24s24-10.745,24-24v-24H20z"/>
<path style="fill:#FFDB0C;" d="M68,112v24c0,13.255,10.745,24,24,24s24-10.745,24-24v-24H68z"/>
<path style="fill:#FF421D;" d="M116,112v24c0,13.255,10.745,24,24,24s24-10.745,24-24v-24H116z"/>
<path style="fill:#FFDB0C;" d="M164,112v24c0,13.255,10.745,24,24,24s24-10.745,24-24v-24H164z"/>
<path style="fill:#FF421D;" d="M212,112v24c0,13.255,10.745,24,24,24c13.255,0,24-10.745,24-24v-24H212z"/>
<path style="fill:#FFDB0C;" d="M260,112v24c0,13.255,10.745,24,24,24s24-10.745,24-24v-24H260z"/>
<path style="fill:#FF421D;" d="M308,112v24c0,13.255,10.745,24,24,24s24-10.745,24-24v-24H308z"/>
<path style="fill:#FFDB0C;" d="M356,112v24c0,13.255,10.745,24,24,24s24-10.745,24-24v-24H356z"/>
<path style="fill:#FF421D;" d="M404,136c0,13.255,10.745,24,24,24s24-10.745,24-24v-24h-48V136z"/>
<path style="fill:#FFDB0C;" d="M12,312h448v160H12V312z"/>
<path style="fill:#E47700;" d="M284,280h96v16h-96V280z"/>
<g>
	<path style="fill:#33BC00;" d="M294.343,362.363l24.002-24.002l11.314,11.314l-24.002,24.002L294.343,362.363z"/>
	<path style="fill:#33BC00;" d="M308,368h24v16h-24V368z"/>
</g>
<path style="fill:#FF6536;" d="M283.28,352h-2.56c-10.566,0.012-20.48,5.113-26.632,13.704l-30.344,42.488
	c-6.455,9.045-4.356,21.61,4.689,28.065c3.411,2.434,7.497,3.743,11.687,3.743h1.024c3.121-0.005,6.198-0.731,8.992-2.12
	l47.784-23.896c16.162-8.083,22.711-27.738,14.628-43.9C307.004,358.999,295.673,351.999,283.28,352L283.28,352z"/>
<path style="fill:#79D60D;" d="M196,360h-8c-8.837,0-16,7.163-16,16v8c0.035,30.913,25.087,55.965,56,56h8c8.837,0,16-7.163,16-16
	v-8C251.965,385.087,226.913,360.035,196,360z"/>
<g>
</g>
<g>
</g>
<g>
</g>
<g>
</g>
<g>
</g>
<g>
</g>
<g>
</g>
<g>
</g>
<g>
</g>
<g>
</g>
<g>
</g>
<g>
</g>
<g>
</g>
<g>
</g>
<g>
</g>
</svg>
