<svg id="Capa_1" enable-background="new 0 0 512.29 512.29" height="512" viewBox="0 0 512.29 512.29" width="512" xmlns="http://www.w3.org/2000/svg"><g><g><g><path d="m261.368 315.059-19.975-13.272-44.222-16.081-85.573 67.769 27.458 49.133c.366.212.729.43 1.097.638l22.803 13.272 108.596-77.147z" fill="#ffe0d1"/><g><path d="m161.556 388.311c-14.067-8.144-26.508-18.821-36.703-31.492l-4.27-5.32-4.012-1.963-4.973 3.939 27.458 49.133c.366.212.729.43 1.097.638l22.803 13.272 21.195-15.057c-4.933-2.871-22.281-12.968-22.595-13.15z" fill="#ffd1c2"/><path d="m503.474 200.369c-.024-3.048-3.332-4.931-5.965-3.396l-123.728 72.143c-2.68 1.51-5.89 1.81-8.81.82l-17.58-5.98c-22.44-7.62-46.84-7.17-68.99 1.28l-.43.17-34.1 44.39-78.71 71.43-8.08 7.15c-6 5.58-7.98 14.11-5.4 21.41.78 2.22 1.98 4.32 3.62 6.2 6.07 6.93 15.84 8.52 23.61 4.58-3.1 3.65-4.67 8.18-4.67 12.72 0 4.77 1.73 9.56 5.24 13.34 7.64 7.63 20.35 7.86 28.25.51l.23-.21c-3.2 3.67-4.81 8.26-4.81 12.87 0 4.78 1.74 9.57 5.25 13.34 7.63 7.64 20.34 7.87 28.24.51l.81-.74c-3.09 3.64-4.65 8.15-4.65 12.68 0 4.78 1.74 9.56 5.25 13.34 7.63 7.63 20.34 7.86 28.24.51l7.92-7.01 54.101-39.906c-.962-1.539-1.527-3.351-1.527-5.3 0-5.534 4.486-10.02 10.02-10.02 3.027 0 5.735 1.348 7.572 3.47l15.037-11.091c-.486-1.309-.765-2.719-.765-4.198 0-6.671 5.408-12.078 12.078-12.078 2.769 0 5.313.942 7.35 2.509l20.684-15.257c13.81-6.04 25.72-15.73 34.44-28.03l5.31-7.48 63.745-31.143c1.372-.67 2.237-2.068 2.225-3.595z" fill="#ffe0d1"/><path d="m503.474 200.369c-.024-3.048-3.332-4.931-5.965-3.396l-123.728 72.143c-2.68 1.51-5.89 1.81-8.81.82l-17.58-5.98c-22.44-7.62-46.84-7.17-68.99 1.28l-.43.17-34.1 44.39-86.79 78.58c-6 5.58-7.98 14.11-5.4 21.41.78 2.22 1.98 4.32 3.62 6.2 6.07 6.93 15.84 8.52 23.61 4.58-3.1 3.65-4.67 8.18-4.67 12.72 0 4.77 1.73 9.56 5.24 13.34 7.64 7.63 20.35 7.86 28.25.51l.23-.21c-3.2 3.67-4.81 8.26-4.81 12.87 0 4.78 1.74 9.57 5.25 13.34 7.63 7.64 20.34 7.87 28.24.51l.81-.74c-3.09 3.64-4.65 8.15-4.65 12.68 0 4.78 1.74 9.56 5.25 13.34 7.63 7.63 20.34 7.86 28.24.51l7.92-7.01 2.225-1.641v-4.584c-7.39 2.999-16.287 1.535-22.17-4.349-3.51-3.78-5.25-8.56-5.25-13.34 0-.288.016-.589.045-.898.341-3.618-2.776-6.641-6.352-5.998-6.394 1.15-13.261-.717-18.092-5.555-3.51-3.77-5.25-8.56-5.25-13.34 0-.947.068-1.893.204-2.83.606-4.188-2.925-7.85-7.118-7.28-6.083.826-13.008.683-16.756-3.06-3.51-3.78-5.24-8.57-5.24-13.34 0-1.028.081-2.056.241-3.073.591-3.746-2.131-7.304-5.913-7.589-1.232-.093-2.725-.612-4.278-1.346-5.485-2.594-6.455-10.017-1.961-14.095l69.303-62.893 34.1-44.39.43-.17c22.15-8.45 46.55-8.9 68.99-1.28l17.58 5.98c2.92.99 6.13.69 8.81-.82l123.728-72.143c.675-.394 1.395-.56 2.093-.541z" fill="#ffd1c2"/><path d="m340.372 321.616c0-9.274-3.592-18.021-10.119-24.632l-35.927-36.377c-5.397 1.101-10.72 2.644-15.924 4.629l-.43.17-34.1 44.39-20.514 18.616 32.952 1.446 28.74 20.367c5.957 4.221 12.964 6.452 20.265 6.452h.001c7.805 0 15.486-2.651 21.641-7.474 8.525-6.696 13.415-16.751 13.415-27.587z" fill="#ffd1c2"/><path d="m319.581 307.526-41.61-42.12c-21.98-22.25-53.37-32.48-84.24-27.43l-49.72 8.12-132.91-62.386c-1.54-.723-3.309.401-3.309 2.102v134.365c0 .887.505 1.696 1.302 2.086l88.988 43.533 4.27 5.32c10.195 12.67 22.636 23.348 36.703 31.492l5.864-30.918 73.574-58.439 42.875 1.808 32.354 22.928c7.24 5.13 16.99 4.89 23.97-.58 5.08-3.99 7.68-9.87 7.68-15.79-.001-5.071-1.911-10.161-5.791-14.091z" fill="#ffe0d1"/><path d="m124.853 356.819c-2.812-3.504-6.362-6.344-10.398-8.318l-77.977-38.146c-3.785-1.852-6.185-5.698-6.185-9.911v-107.726l-19.192-9.008c-1.54-.723-3.309.401-3.309 2.102v134.365c0 .887.505 1.696 1.302 2.086l88.988 43.533 4.27 5.32c10.195 12.67 22.636 23.348 36.703 31.492l5.008-26.408c-7.04-5.767-13.48-12.259-19.21-19.381z" fill="#ffd1c2"/></g><path d="m279.781 202.833-20.759 7.613c-2.15.789-4.511.789-6.661 0l-20.759-7.613c-42.884-15.726-71.393-56.547-71.393-102.223v-65.187c0-5.364 3.801-9.976 9.066-11.002l86.886-16.921 85.967 16.907c5.256 1.034 9.046 5.641 9.046 10.998v65.205c0 45.677-28.509 86.497-71.393 102.223z" fill="#b3e5ee"/><path d="m271.01 201.533c-51.331-17.028-85.456-61.227-85.456-110.683v-69.6l-16.28 3.17c-5.265 1.025-9.066 5.638-9.066 11.002v65.188c0 45.676 28.509 86.497 71.393 102.223l20.759 7.613c2.15.789 4.511.789 6.661 0l18.456-6.768z" fill="#86d7e5"/><path d="m241.931 174.668c-30.937-11.345-51.722-41.106-51.722-74.058v-44.257c0-3.163 2.241-5.882 5.345-6.487l60.578-11.797 59.708 11.743c3.099.609 5.333 3.326 5.333 6.484v44.313c0 33.091-20.654 62.664-51.722 74.057l-13.761 5.046z" fill="#f9f7f7"/></g><path d="m398.761 400.556c4.827-2.111 9.416-4.678 13.724-7.637-1.373-4.006-3.514-7.82-6.458-11.208l-13.107-15.084c-6.441-7.412-15.769-11.662-25.593-11.662-8.165 0-16.057 2.951-22.227 8.312l-1.078.937c-5.275 4.584-8.786 10.453-10.477 16.742-6.649.827-12.941 3.607-18.048 8.045l-1.081.939c-5.16 4.485-8.766 10.285-10.496 16.745-6.641.83-12.926 3.609-18.025 8.04l-1.084.941c-5.275 4.584-8.786 10.453-10.476 16.742-6.649.827-12.941 3.607-18.051 8.048l-1.078.937c-6.834 5.938-10.946 14.183-11.58 23.214s2.289 17.77 8.228 24.603l11.067 12.736c1.191-.708 2.325-1.538 3.37-2.511l7.92-7.01 54.101-39.906c-.962-1.539-1.527-3.351-1.527-5.3 0-5.534 4.486-10.02 10.02-10.02 3.027 0 5.735 1.348 7.572 3.47l15.037-11.091c-.486-1.309-.765-2.719-.765-4.198 0-6.671 5.408-12.078 12.078-12.078 2.769 0 5.313.942 7.35 2.509z" fill="#ffd1c2"/><path d="m365.099 417.277-13.107-15.084c-6.845-7.877-6.008-19.811 1.869-26.656l1.08-.939c7.877-6.845 19.811-6.008 26.656 1.869l13.107 15.084c6.845 7.877 6.008 19.811-1.869 26.656l-1.08.939c-7.876 6.844-19.811 6.008-26.656-1.869z" fill="#ffe0d1"/><path d="m373.275 411.126-13.107-15.084c-6.206-7.142-6.065-17.631-.119-24.626-1.809.758-3.546 1.825-5.108 3.182l-1.08.939c-7.877 6.845-8.714 18.779-1.869 26.656l13.107 15.084c6.845 7.877 18.779 8.714 26.656 1.869l1.08-.939c.735-.639 1.388-1.297 2-2.017-7.316 3.066-16.072 1.252-21.56-5.064z" fill="#ffd1c2"/><path d="m335.494 443.003-13.107-15.084c-6.845-7.877-6.008-19.811 1.869-26.656l1.08-.939c7.877-6.845 19.811-6.008 26.656 1.869l13.107 15.084c6.845 7.877 6.008 19.811-1.869 26.656l-1.08.939c-7.877 6.845-19.811 6.008-26.656-1.869z" fill="#ffe0d1"/><path d="m343.919 435.682-13.107-15.084c-5.74-6.605-6.073-16.087-1.389-23.005-1.445.707-2.816 1.626-4.088 2.731l-1.08.939c-7.877 6.845-8.714 18.779-1.869 26.656l13.107 15.084c6.845 7.877 18.779 8.714 26.656 1.869l1.08-.939c1.272-1.105 2.349-2.327 3.251-3.659-7.502 3.673-16.821 2.013-22.561-4.592z" fill="#ffd1c2"/><path d="m305.889 468.73-13.107-15.084c-6.845-7.877-6.008-19.811 1.869-26.656l1.08-.939c7.877-6.845 19.811-6.008 26.656 1.869l13.107 15.084c6.845 7.877 6.008 19.811-1.869 26.656l-1.08.939c-7.877 6.844-19.811 6.008-26.656-1.869z" fill="#ffe0d1"/><path d="m313.913 461.757-13.107-15.084c-5.802-6.677-6.096-16.275-1.25-23.212-1.356.688-2.626 1.547-3.826 2.59l-1.08.939c-7.877 6.845-8.714 18.779-1.869 26.656l13.107 15.084c6.845 7.877 18.779 8.714 26.656 1.869l1.08-.939c1.2-1.043 2.23-2.195 3.101-3.441-7.543 3.83-17.01 2.215-22.812-4.462z" fill="#ffd1c2"/><path d="m276.284 494.456-13.107-15.084c-6.845-7.877-6.008-19.811 1.869-26.656l1.08-.939c7.877-6.845 19.811-6.008 26.656 1.869l13.107 15.084c6.845 7.877 6.008 19.811-1.869 26.656l-1.08.939c-7.877 6.845-19.811 6.008-26.656-1.869z" fill="#ffe0d1"/><path d="m290.857 493.398-20.06-23.085c-4.888-5.625-5.838-13.312-3.125-19.745-.53.373-1.047.775-1.547 1.209l-1.08.939c-7.877 6.845-8.714 18.779-1.869 26.656l13.107 15.084c5.805 6.68 15.271 8.296 22.817 4.459-3.083-1.036-5.954-2.884-8.243-5.517z" fill="#ffd1c2"/></g><g><path d="m4.605 188.942 136.219 63.939c1.37.643 2.902.855 4.396.613l49.723-8.121c28.416-4.639 57.458 4.817 77.691 25.299l41.613 42.125c2.55 2.581 3.828 5.997 3.598 9.618s-1.928 6.848-4.784 9.087c-4.338 3.4-10.508 3.55-15.004.364l-40.573-28.745c-5.758-4.08-13.428-3.616-18.653 1.125l-29.65 26.905c-3.067 2.784-3.298 7.527-.514 10.594 2.783 3.067 7.525 3.298 10.594.514l29.551-26.899 40.573 28.745c4.743 3.36 10.333 5.03 15.917 5.03 6.038 0 12.068-1.952 17.013-5.829 6.177-4.842 10.003-12.111 10.5-19.943s-2.382-15.525-7.897-21.108l-32.992-33.397c17.447-4.329 35.916-3.619 53.055 2.204l17.582 5.975c1.918.651 3.911.973 5.899.973 3.12 0 6.225-.793 8.998-2.351.035-.02.07-.04.104-.06l129.631-75.598c3.578-2.087 4.787-6.679 2.701-10.257-2.087-3.579-6.68-4.786-10.257-2.701l-129.564 75.559c-.822.449-1.8.532-2.686.232l-17.582-5.974c-22.674-7.704-47.36-7.702-69.995-.087-23.423-21.591-55.683-31.362-87.287-26.203l-47.43 7.747-134.116-62.953c-3.75-1.76-8.216-.147-9.976 3.602-1.76 3.75-.148 8.216 3.602 9.976z"/><path d="m511.237 329.516c-1.817-3.722-6.31-5.264-10.031-3.447l-65.987 32.233c-1.128.551-2.1 1.376-2.826 2.4l-5.309 7.485c-6.384 9.001-14.649 16.465-24.18 21.902-.741-1.201-1.584-2.359-2.539-3.458l-13.107-15.083c-9.547-10.986-26.251-12.157-37.238-2.609l-1.079.938c-5.584 4.852-8.626 11.554-9.02 18.414-.115-.01-.23-.025-.345-.033-7.031-.493-13.837 1.782-19.159 6.406l-1.081.939c-5.587 4.855-8.63 11.562-9.021 18.426-6.851-.57-13.916 1.506-19.502 6.361l-1.082.94c-5.587 4.855-8.629 11.562-9.021 18.425-6.852-.57-13.918 1.507-19.505 6.363l-1.079.938c-5.322 4.625-8.524 11.044-9.018 18.078-.493 7.033 1.783 13.837 6.407 19.159l6.334 7.289-2.528 2.236c-.046.042-.093.083-.138.125-4.884 4.543-12.974 4.428-17.737-.228-4.083-4.49-4.211-11.327-.279-15.96 2.569-3.027 2.334-7.533-.537-10.276-2.871-2.742-7.382-2.773-10.29-.068l-.805.749c-4.885 4.544-12.976 4.427-17.738-.228-4.14-4.551-4.228-11.44-.186-16.082 2.62-3.009 2.426-7.542-.441-10.316-2.866-2.773-7.404-2.817-10.325-.1l-.224.208c-4.885 4.543-12.976 4.428-17.738-.228-4.092-4.499-4.214-11.344-.264-15.979 2.317-2.719 2.394-6.696.185-9.503-2.21-2.807-6.093-3.665-9.28-2.053-4.938 2.5-10.933 1.333-14.58-2.835-4.244-4.85-3.706-12.514 1.189-17.124l8.065-7.143 25.159-22.83c3.067-2.784 3.298-7.527.514-10.594-2.784-3.068-7.527-3.298-10.594-.514l-25.091 22.769-8.074 7.151c-.045.041-.091.082-.135.123-4.136 3.847-6.839 8.717-8.073 13.874l-.056-.032c-13.751-7.793-25.745-17.991-35.65-30.309l-4.276-5.318c-.69-.858-1.56-1.554-2.549-2.038l-90.285-44.167c-3.721-1.818-8.213-.279-10.033 3.441-1.82 3.721-.279 8.213 3.441 10.033l88.784 43.432 3.229 4.016c11.098 13.801 24.536 25.227 39.943 33.959l9.344 5.296c1.003 2.078 2.284 4.051 3.861 5.852 4.56 5.211 10.761 8.325 17.274 9.083-.929 7.688 1.441 15.682 7.062 21.725.062.066.125.131.188.195 5.798 5.798 13.699 8.485 21.443 8.01.038 6.579 2.473 13.142 7.282 18.312.062.066.125.131.188.195 5.991 5.991 14.229 8.659 22.217 7.953.193 6.363 2.617 12.662 7.242 17.635.062.066.125.131.188.195 5.365 5.365 12.533 8.063 19.706 8.063 6.796 0 13.598-2.423 18.876-7.295l2.676-2.367c4.165 3.365 9.245 5.383 14.699 5.765.631.044 1.259.066 1.886.066 6.355 0 12.429-2.263 17.272-6.472l1.082-.94c5.588-4.856 8.63-11.564 9.021-18.428.734.061 1.47.1 2.208.1 6.141 0 12.309-2.125 17.297-6.46l1.079-.938c5.588-4.856 8.63-11.563 9.021-18.428.734.061 1.47.1 2.208.1 6.141 0 12.309-2.125 17.297-6.46l1.079-.938c5.322-4.625 8.524-11.044 9.018-18.078.008-.117.009-.233.016-.35.73.06 1.463.099 2.196.099 6.141 0 12.308-2.125 17.295-6.459l1.081-.939c5.698-4.952 8.748-11.829 9.04-18.836 12.922-6.628 24.093-16.278 32.526-28.167l4.202-5.924 64.268-31.394c3.722-1.815 5.266-6.306 3.447-10.028zm-212.134 160.208-1.082.94c-2.297 1.996-5.227 2.979-8.271 2.766-3.036-.213-5.808-1.596-7.804-3.893l-13.107-15.083c-1.997-2.297-2.979-5.235-2.766-8.271s1.596-5.808 3.894-7.805l1.079-.938c2.154-1.872 4.816-2.789 7.467-2.789 3.187 0 6.358 1.327 8.608 3.916l13.107 15.084c4.121 4.741 3.616 11.952-1.125 16.073zm29.602-25.725-1.079.938c-4.742 4.121-11.954 3.616-16.076-1.127l-13.107-15.084c-4.121-4.743-3.616-11.954 1.125-16.074l1.082-.94c4.743-4.121 11.954-3.616 16.076 1.127l13.107 15.083c4.121 4.743 3.616 11.955-1.128 16.077zm33.499-33.531c-.213 3.036-1.596 5.808-3.894 7.805l-1.079.938c-4.743 4.121-11.954 3.616-16.076-1.127l-13.107-15.084c-4.122-4.743-3.616-11.955 1.126-16.076l1.081-.939c2.092-1.817 4.713-2.794 7.458-2.794.27 0 .542.009.814.028 3.036.213 5.808 1.596 7.804 3.893l13.107 15.083c1.997 2.299 2.979 5.236 2.766 8.273zm25.713-17.923-1.081.939c-4.742 4.121-11.954 3.616-16.076-1.127l-13.107-15.083c-1.997-2.297-2.979-5.235-2.766-8.271s1.595-5.808 3.894-7.805l1.079-.938c4.743-4.121 11.955-3.616 16.076 1.127l13.107 15.083c4.122 4.742 3.616 11.954-1.126 16.075z"/><path d="m229.02 209.875 20.759 7.613c1.906.699 3.909 1.049 5.913 1.049 2.003 0 4.006-.35 5.913-1.049l20.758-7.613c18.788-6.89 35.57-18.58 48.531-33.807 12.816-15.057 21.638-33.245 25.511-52.598.813-4.062-1.82-8.013-5.882-8.826-4.066-.815-8.014 1.821-8.826 5.882-6.877 34.358-31.591 63.198-64.498 75.265l-20.759 7.613c-.483.177-1.014.177-1.497 0l-20.759-7.613c-39.761-14.581-66.475-52.832-66.475-95.182v-65.186c0-1.771 1.262-3.302 3-3.64l85.445-16.641 84.527 16.625c1.734.341 2.993 1.872 2.993 3.639v54.625c0 4.142 3.358 7.5 7.5 7.5s7.5-3.358 7.5-7.5v-54.626c0-8.916-6.35-16.636-15.098-18.356l-85.968-16.908c-.951-.187-1.929-.188-2.881-.003l-86.886 16.921c-8.769 1.708-15.132 9.431-15.132 18.364v65.188c0 48.615 30.667 92.526 76.311 109.264z"/><path d="m257.58 30.71c-.951-.188-1.929-.188-2.881-.003l-65.924 12.838c-3.523.686-6.066 3.772-6.066 7.362v49.703c0 36.084 22.762 68.675 56.64 81.099l13.76 5.046c.833.306 1.708.458 2.582.458.875 0 1.749-.153 2.582-.458l13.761-5.046c33.878-12.423 56.64-45.015 56.64-81.099v-49.749c0-3.584-2.536-6.667-6.053-7.359zm56.094 69.9c0 29.818-18.809 56.75-46.804 67.016l-11.178 4.1-11.178-4.099c-27.996-10.267-46.805-37.198-46.805-67.016v-43.523l58.417-11.376 57.548 11.318z"/><path d="m236.445 114.508c-3.018-2.838-7.763-2.691-10.602.326-2.837 3.018-2.691 7.764.326 10.602l12.106 11.384c1.395 1.312 3.234 2.036 5.137 2.036.159 0 .319-.005.479-.015 2.071-.132 3.994-1.117 5.313-2.719l39.211-47.644c2.632-3.198 2.173-7.925-1.025-10.557s-7.925-2.173-10.557 1.025l-34.12 41.457z"/></g></g></svg>